<?xml version="1.0" encoding="utf-8"?>
<!-- Generator: Adobe Illustrator 15.0.0, SVG Export Plug-In . SVG Version: 6.00 Build 0)  -->
<!DOCTYPE svg PUBLIC "-//W3C//DTD SVG 1.0//EN" "http://www.w3.org/TR/2001/REC-SVG-20010904/DTD/svg10.dtd">
<svg version="1.0" id="Wasser" xmlns="http://www.w3.org/2000/svg" xmlns:xlink="http://www.w3.org/1999/xlink" x="0px" y="0px"
	 width="566px" height="324px" viewBox="0 0 566 324" enable-background="new 0 0 566 324" xml:space="preserve">
<g>
	<path fill="#A5B2CA" stroke="#A5B2CA" stroke-width="0.07" stroke-linecap="round" stroke-linejoin="round" d="M440.729,231.964
		l-0.071-0.179l-0.358-0.144v-0.144l-0.25,0.215l0.43,0.357l0.215-0.071L440.729,231.964"/>
	<polygon fill="#A5B2CA" stroke="#A5B2CA" stroke-width="0.07" stroke-linecap="round" stroke-linejoin="round" points="
		341.023,65.118 340.665,64.081 340.307,63.259 339.664,62.723 339.091,62.508 337.948,62.651 336.161,63.474 336.303,64.26 
		335.732,64.224 335.337,64.224 334.91,64.332 334.48,64.653 334.945,64.653 335.052,64.939 334.802,65.225 334.659,65.69 
		334.48,65.904 334.123,65.904 334.23,66.19 334.551,66.405 335.087,66.226 335.445,66.333 336.089,65.94 336.839,65.368 
		337.34,65.333 337.698,65.476 337.769,65.726 337.698,65.904 337.519,65.976 336.982,66.441 336.303,66.834 335.802,67.191 
		335.337,67.692 334.91,68.228 334.659,68.765 334.48,69.265 334.301,69.801 334.194,70.516 334.265,70.945 334.409,71.41 
		334.624,71.768 335.124,71.768 335.66,71.732 336.017,71.517 336.589,71.195 337.054,70.91 337.805,69.98 338.09,69.301 
		338.234,68.979 338.52,68.407 339.341,67.835 340.093,67.37 340.628,66.691 340.986,66.155 	"/>
	<path fill="#A5B2CA" stroke="#A5B2CA" stroke-width="0.07" stroke-linecap="round" stroke-linejoin="round" d="M214.575,193.568
		l-0.036-0.573l-0.286-0.143h-0.394l-0.787-0.25l-0.75-0.107l-0.679-0.071l-0.715-0.035l-1.037,0.106l-1.215,0.572l-0.822,0.501
		l-1.108,0.429l-1.037-0.25l-1.251-0.501l-0.75-0.715l-0.536-1.573l-0.143-0.322l-0.286-0.179l-0.465,0.645v0.393l0.215,0.822
		l0.286,0.822l0.572,0.787l0.858,0.464l0.644,0.215l0.5,0.214l0.25,0.072l0.822,0.144l0.715,0.106l0.5,0.036l0.321-0.572
		l0.215-0.394l0.787-0.5l0.572-0.179l0.572-0.215l1.323-0.107l1.144,0.071l1.18,0.215L214.575,193.568"/>
	<polygon fill="#A5B2CA" stroke="#A5B2CA" stroke-width="0.07" stroke-linecap="round" stroke-linejoin="round" points="
		224.513,194.533 223.727,194.354 222.869,193.64 221.868,193.39 221.868,193.139 221.367,192.46 221.224,192.066 220.724,191.923 
		219.901,191.387 219.723,191.423 219.472,191.78 219.937,192.173 220.008,192.495 219.222,192.567 218.114,192.245 
		217.148,192.353 216.255,192.21 215.754,192.603 214.896,192.96 214.896,193.568 215.504,193.496 216.219,193.425 216.862,193.46 
		217.435,193.532 218.364,193.46 219.329,193.496 220.652,193.782 221.367,193.961 222.225,194.533 222.726,195.069 
		223.154,195.569 223.548,196.32 224.084,196.214 224.477,195.963 224.155,195.177 	"/>
	<polygon fill="#A5B2CA" stroke="#A5B2CA" stroke-width="0.07" stroke-linecap="round" stroke-linejoin="round" points="
		202.455,190.207 202.026,189.886 201.776,189.671 201.418,189.313 201.347,188.706 201.275,188.241 201.418,187.848 
		201.776,187.526 202.133,187.312 202.098,187.133 201.418,187.348 200.31,187.062 199.488,186.668 198.844,186.061 198.308,185.31 
		198.129,184.702 197.558,183.915 197.057,183.986 197.558,185.095 197.772,186.061 197.915,186.597 198.38,187.169 199.13,187.598 
		199.667,187.776 199.988,188.063 200.131,188.742 200.167,188.992 200.274,189.456 200.632,190.172 200.954,190.601 
		201.848,191.137 	"/>
	<polygon fill="#A5B2CA" stroke="#A5B2CA" stroke-width="0.07" stroke-linecap="round" stroke-linejoin="round" points="
		443.411,236.253 445.233,237.826 446.485,238.898 447.593,239.864 448.452,240.687 449.202,241.401 449.631,241.759 
		450.239,242.188 451.061,242.652 452.062,243.152 452.348,243.332 452.706,243.511 453.492,243.761 453.92,243.975 
		455.422,244.762 455.708,244.905 456.245,245.298 456.459,245.477 457.138,245.835 459.104,246.871 461,247.943 462.036,248.48 
		464.252,249.517 465.861,250.303 468.006,251.232 471.188,252.591 476.408,254.772 476.586,254.844 481.627,256.988 
		482.842,257.489 485.13,258.419 486.668,258.955 488.598,259.741 490.35,260.527 492.531,261.422 495.176,262.064 496.535,262.279 
		499.645,262.637 503.792,262.78 512.122,262.78 516.912,262.565 519.701,262.101 519.666,261.886 522.131,261.35 522.167,261.6 
		523.49,261.422 525.243,260.992 526.35,260.849 528.352,260.635 530.569,260.599 532.642,260.849 535.038,261.672 536.396,262.314 
		548.873,268.821 550.16,270.145 552.483,272.504 556.237,275.436 556.738,274.72 552.734,271.789 551.089,269.93 549.838,268.464 
		549.302,267.893 537.683,261.743 536.146,260.921 539.328,260.349 539.149,259.348 534.823,260.063 532.964,259.669 
		531.749,259.419 530.319,259.383 527.53,259.598 525.207,259.598 523.168,259.634 519.451,260.242 517.27,260.706 516.054,261.027 
		515.589,261.422 514.732,261.672 513.374,261.707 513.051,261.422 511.764,261.528 511.264,261.85 505.723,261.886 
		502.041,261.886 499.466,261.778 496.821,261.314 494.854,260.921 495.105,260.706 494.64,260.42 494.319,260.599 493.353,260.635 
		492.209,260.42 489.385,259.169 487.168,258.203 485.56,257.381 483.736,256.416 482.771,255.701 481.269,254.665 480.197,254.021 
		479.303,253.592 478.552,253.307 478.266,253.127 477.837,253.091 477.301,252.877 476.944,253.735 477.444,253.985 
		477.766,254.199 477.981,254.307 478.231,254.307 478.552,254.414 478.911,254.7 479.411,254.986 479.947,255.272 480.448,255.558 
		480.84,255.844 480.698,255.88 479.803,255.558 478.624,255.094 477.731,254.735 477.694,254.7 476.729,254.271 476.623,254.235 
		476.085,253.985 474.298,253.234 471.974,252.27 470.438,251.59 468.614,250.804 467.398,250.303 466.541,249.803 465.682,249.23 
		464.752,248.373 464.324,247.907 464.002,247.443 463.681,247.729 463.931,248.015 464.324,248.48 464.288,248.694 463.18,248.193 
		461.75,247.479 458.961,245.906 456.745,244.798 456.387,244.654 455.923,244.512 455.565,244.369 454.099,243.582 
		453.707,243.368 452.563,242.795 452.312,242.652 451.132,242.045 451.168,241.902 452.419,242.367 452.991,242.581 
		454.099,242.795 454.135,242.938 455.029,243.046 456.387,243.332 457.173,243.582 458.318,244.082 459.856,244.798 
		461.714,245.763 462.537,246.228 463.144,247.121 463.681,247.729 464.002,247.443 463.86,247.157 463.645,246.799 
		464.466,247.121 466.148,247.765 467.255,248.301 468.65,248.909 469.686,249.517 471.153,250.445 472.69,251.447 474.012,252.377 
		475.121,253.02 476.801,253.664 476.944,253.699 477.265,252.877 477.194,252.841 475.835,252.306 474.906,251.876 
		473.511,251.126 472.403,250.41 471.474,249.731 470.331,248.98 469.401,248.443 468.471,247.943 466.433,247.05 465.003,246.406 
		464.539,246.299 463.966,246.12 462.465,245.405 461.25,244.762 459.426,243.832 457.996,243.152 457.067,242.76 456.959,242.724 
		455.887,242.295 454.958,242.081 453.063,241.688 452.777,241.615 451.668,241.223 449.774,240.222 448.416,239.006 
		446.627,237.361 445.59,236.11 445.126,235.824 444.626,235.467 444.161,235.181 443.303,234.431 442.016,233.501 441.408,233.179 
		440.765,232.821 440.193,232.428 440.157,232.356 438.656,231.105 437.654,230.14 437.119,229.676 436.653,229.318 
		436.295,229.067 434.652,227.995 433.757,227.53 433.579,227.423 431.828,226.564 430.648,226.064 429.575,225.672 
		427.859,225.027 426.286,224.563 423.855,223.848 421.853,223.205 419.35,222.347 417.993,221.882 417.528,221.596 
		417.456,221.488 416.919,221.561 416.633,221.452 416.061,221.31 414.345,220.916 412.808,220.56 411.522,220.237 409.483,220.202 
		407.589,220.202 406.695,220.13 405.694,219.88 405.05,219.63 404.407,219.344 403.657,218.879 402.762,218.128 401.94,217.27 
		400.832,216.09 399.509,214.66 397.936,212.98 396.792,211.657 396.006,210.406 395.362,209.155 395.004,208.118 394.504,206.938 
		393.79,205.294 393.182,204.007 393.039,203.828 392.074,201.647 391.859,201.219 391.644,200.396 390.464,197.68 390.572,197.607 
		390.357,197.143 390.071,196.785 388.319,192.781 385.853,187.169 383.529,181.842 378.31,169.794 378.489,169.758 
		379.024,169.937 380.633,170.652 381.848,171.868 386.71,183.057 387.64,182.628 382.385,170.438 379.024,169.044 378.453,168.722 
		377.988,168.364 377.773,168.149 377.523,167.899 377.379,167.578 377.416,167.22 377.666,166.97 377.88,166.97 380.311,167.936 
		380.741,166.934 377.558,165.575 376.522,164.968 375.915,164.575 375.02,163.823 373.948,162.787 372.983,161.714 
		374.163,160.392 374.556,160.07 374.77,159.748 374.985,159.212 374.877,158.747 374.663,158.604 374.413,158.998 374.735,159.141 
		374.485,159.641 374.019,160.07 373.733,160.392 373.34,160.749 372.625,161.393 371.982,160.749 371.696,160.642 371.374,160.285 
		371.052,159.891 369.408,158.318 368.478,157.46 367.62,156.674 365.44,154.958 365.404,154.815 365.547,154.743 369.229,156.28 
		369.408,156.316 370.015,156.602 371.517,157.282 372.553,158.211 373.126,158.533 373.698,158.676 374.163,158.962 
		374.449,158.497 374.019,158.425 373.376,158.247 372.947,158.068 372.411,157.639 371.982,157.21 371.482,156.709 369.408,155.78 
		369.015,155.816 365.153,154.243 365.082,154.1 363.867,153.456 362.401,152.706 360.328,151.097 358.611,149.703 355,146.842 
		350.424,143.446 348.065,141.659 346.028,139.943 344.061,138.083 343.239,137.19 342.56,136.332 341.916,135.438 341.308,134.437 
		340.165,132.435 339.127,130.755 338.484,129.826 337.876,128.967 337.34,128.181 337.269,128.217 336.875,127.752 336.553,127.18 
		335.66,125.357 335.087,124.427 334.91,124.141 334.624,123.855 334.409,123.534 334.158,123.176 333.157,121.567 332.943,121.246 
		332.835,120.924 332.407,120.03 332.335,119.851 332.013,119.136 331.87,118.636 331.87,118.063 332.048,117.527 332.335,116.884 
		332.693,116.419 333.408,115.633 333.729,115.311 335.052,113.81 335.195,113.559 336.053,112.522 336.518,111.915 
		336.768,111.521 337.018,111.128 337.376,110.628 337.698,110.377 338.055,110.02 338.484,109.591 338.913,109.233 
		339.557,108.662 340.057,108.232 341.38,107.16 342.381,106.087 343.167,105.015 343.631,104.229 344.24,103.049 344.74,101.905 
		345.206,100.939 345.491,100.403 345.884,99.724 346.063,99.545 346.778,98.902 348.386,97.793 349.459,97.114 350.353,96.399 
		350.603,96.149 351.354,95.148 351.711,94.433 352.069,93.575 352.176,93.468 352.355,93.682 352.534,94.183 352.856,94.934 
		353.32,94.862 353.141,93.933 352.856,92.86 352.606,91.895 352.248,90.25 352.248,90.179 351.926,88.856 351.425,87.676 
		350.96,86.854 350.317,86.032 349.638,85.281 348.53,84.173 347.064,82.886 345.884,81.992 344.705,81.206 342.703,80.062 
		341.416,79.489 340.128,79.096 339.02,78.882 337.269,78.81 335.802,78.953 334.587,79.167 333.729,79.311 333.515,79.418 
		333.049,79.347 332.871,79.204 332.514,78.989 332.048,78.703 331.727,78.417 331.406,77.952 331.156,77.487 330.977,76.844 
		330.833,75.95 330.798,75.307 330.726,74.27 330.726,73.269 330.62,71.589 330.62,70.337 330.833,69.265 331.12,68.264 
		331.477,67.334 331.548,67.227 332.335,66.012 333.157,65.154 333.586,64.761 335.41,63.581 337.448,62.508 338.377,62.151 
		339.27,61.865 340.2,61.65 340.916,61.543 341.773,61.329 343.417,61.257 345.133,61.257 346.743,61.257 347.207,61.436 
		347.565,61.4 347.958,61.436 348.315,61.472 348.852,61.4 349.531,61.221 350.21,60.971 350.889,60.578 351.354,60.256 
		351.89,59.898 353.177,59.041 354.536,58.183 355.715,57.36 357.79,55.644 358.826,54.75 360.399,53.678 362.007,52.784 
		362.186,52.713 363.616,51.962 365.261,51.175 366.226,50.604 367.048,49.889 368.371,48.673 369.515,47.458 370.731,45.849 
		371.767,44.347 372.625,42.81 373.555,40.951 374.413,38.77 375.091,37.019 375.665,35.803 376.701,33.801 377.416,32.514 
		378.059,31.191 378.739,29.547 379.346,27.652 380.097,25.078 380.812,22.969 381.491,21.646 382.599,19.93 384.208,17.606 
		385.352,15.926 385.316,15.819 385.495,15.568 386.568,14.067 386.71,13.853 385.495,13.03 385.352,13.173 385.102,13.03 
		385.173,12.852 384.887,13.102 384.816,13.781 384.172,14.889 382.564,17.213 381.742,18.536 380.633,20.645 379.704,22.826 
		379.024,24.792 378.631,26.401 378.023,28.403 377.202,30.583 376.879,31.191 375.772,33.336 374.306,36.268 373.733,37.769 
		372.84,39.986 372.053,41.737 371.195,43.346 369.98,45.241 368.621,47.028 367.227,48.494 366.047,49.531 364.403,50.604 
		363.081,51.283 361.686,51.998 361.579,52.069 359.398,53.356 358.361,54.036 356.824,55.287 355.465,56.431 354.036,57.467 
		353.106,58.075 351.711,58.683 350.353,59.005 349.566,59.076 349.602,59.147 348.136,59.219 347.243,59.398 347.028,59.398 
		345.277,59.434 345.062,59.47 344.454,59.327 342.953,59.398 342.381,59.398 341.844,59.541 340.916,59.827 339.485,60.363 
		338.09,60.935 336.125,61.757 334.91,62.437 333.944,63.08 332.835,63.902 331.656,64.939 331.048,65.654 330.726,66.119 
		330.44,66.691 330.369,66.798 330.083,67.442 329.69,68.55 329.44,69.729 329.332,70.73 329.368,71.732 329.403,73.483 
		329.44,74.771 329.511,75.843 329.654,76.951 329.869,77.845 330.225,78.596 330.833,79.311 331.584,79.918 332.085,80.205 
		332.871,80.348 333.335,80.526 333.479,80.562 334.373,80.562 335.374,80.491 337.519,80.348 338.949,80.348 340.415,80.562 
		341.773,80.955 343.31,81.706 344.561,82.457 345.562,83.172 346.743,84.101 347.565,84.816 348.637,85.853 349.495,86.783 
		350.21,87.712 350.639,88.57 350.997,89.535 351.175,90.322 351.175,90.393 351.247,91.501 351.175,92.538 350.889,93.611 
		350.603,94.183 350.389,94.612 349.923,95.22 349.709,95.505 349.352,95.792 348.315,96.542 346.635,97.758 346.028,98.258 
		345.562,98.794 345.419,98.938 344.597,100.01 344.561,100.082 344.204,100.725 343.704,101.726 343.239,102.727 342.739,103.692 
		342.059,104.765 341.487,105.516 340.843,106.195 340.022,106.91 338.806,107.946 338.198,108.447 337.912,108.769 
		337.197,109.484 336.589,110.199 335.875,111.092 335.052,112.272 334.515,112.952 334.336,113.13 333.694,113.845 
		333.014,114.632 332.728,114.989 332.085,115.704 331.441,116.419 330.941,117.099 330.69,117.706 330.511,118.386 330.44,119.244 
		330.547,119.994 330.655,120.53 330.762,120.709 331.191,121.639 331.334,121.925 331.656,122.64 331.727,123.104 331.656,123.605 
		331.691,123.784 331.942,124.07 332.192,123.927 332.514,124.249 332.799,124.57 333.157,125.035 334.051,126 335.66,127.859 
		336.161,128.539 336.553,129.253 337.483,130.576 338.949,132.721 340.272,134.974 340.986,136.225 341.487,136.904 
		342.453,138.083 343.417,139.121 344.74,140.372 345.956,141.409 347.243,142.445 348.565,143.518 353.035,146.842 354.75,148.058 
		356.252,149.238 358.147,150.775 361.829,153.599 363.294,154.743 364.653,156.102 366.083,157.496 367.835,159.355 
		368.442,160.034 368.514,159.999 369.408,160.928 370.265,161.571 370.516,161.822 371.875,163.216 372.232,163.646 
		372.411,163.931 372.983,164.503 374.413,165.934 375.271,166.791 375.628,167.22 375.95,167.685 376.272,168.257 384.995,188.205 
		388.749,196.749 389.035,197.607 389.607,200.11 389.928,201.075 390.286,201.897 390.464,202.47 390.715,202.898 391.358,203.972 
		391.608,204.507 391.715,204.829 392.574,206.902 393.575,209.155 394.468,210.728 395.398,212.051 396.828,213.659 
		398.437,215.34 400.796,217.842 402.548,219.594 403.12,219.986 404.014,220.487 404.228,220.631 405.479,221.131 406.66,221.417 
		408.482,221.524 410.091,221.524 412.093,221.668 413.809,221.953 415.275,222.274 417.348,222.739 419.851,223.562 
		421.96,224.241 424.534,224.956 426.858,225.6 428.86,226.351 431.362,227.315 433.221,228.066 433.436,228.174 435.903,229.782 
		436.26,230.068 439.549,233.071 439.657,233.179 441.301,234.645 442.66,235.789 	"/>
</g>
<path fill="#A5B2CA" stroke="#A5B2CA" stroke-width="0.07" stroke-linecap="round" stroke-linejoin="round" d="M385.352,13.173
	c0,0,1.255-1.254,2.067-2.067S389.469,9.531,390,9s1.813-0.5,2.75-2.125s3.5-3.875,4.688-4.313s1.32-2.294,1.964-2.938
	c0.561-0.561,0.789-1.569,0.838-2.109c0.008-0.079,1.632-0.381,1.604-0.016c-0.056,0.703-0.202,1.796-0.593,2.187
	c-0.594,0.594-1.103,2.764-1.527,3.188c-0.424,0.424-2.598,1.688-3.285,2.375s-1.969,1.969-2.625,2.625s-1.969,1.969-2.594,2.594
	s-2.688,1.75-3.219,2.281s-1.433,1.317-1.433,1.317l-0.861-0.894"/>
<path fill="#A5B2CA" stroke="#A5B2CA" stroke-width="0.07" stroke-linecap="round" stroke-linejoin="round" d="M556.738,274.72
	c0,0,4.86,3.329,6.214,4.069c1.352,0.739,4.64,2.233,5.059,2.651c0.268,0.268,0.996,0.607,1.489,0.819
	c0.279,0.119,0.297,1.42,0.001,1.269c-1.021-0.521-3.344-1.729-3.762-2.147c-0.538-0.537-4.185-2.092-4.663-2.57
	c-0.479-0.478-4.839-3.375-4.839-3.375L556.738,274.72z"/>
</svg>
